<svg xmlns="http://www.w3.org/2000/svg" width="17.999" height="18" viewBox="0 0 17.999 18">
    <g>
        <path fill="#fff" d="M-2383.179-7318.591a9 9 0 0 1 5.379-10.072 9 9 0 0 1 10.928 3.312 9 9 0 0 1-1.117 11.363 8.989 8.989 0 0 1-6.362 2.638 9 9 0 0 1-8.828-7.241zm1.523-1.759a7.314 7.314 0 0 0 7.311 7.324 7.317 7.317 0 0 0 7.32-7.318 7.318 7.318 0 0 0-7.326-7.311 7.315 7.315 0 0 0-7.305 7.305zm6.457 4.928v-.78h-.778a.847.847 0 0 1-.848-.848.847.847 0 0 1 .848-.846h2.165a.792.792 0 0 0 .756-.364.793.793 0 0 0 0-.839.789.789 0 0 0-.756-.366h-1.078a2.474 2.474 0 0 1-2.362-1.485 2.473 2.473 0 0 1 .524-2.741 2.442 2.442 0 0 1 1.529-.75v-.8a.867.867 0 0 1 .237-.622.862.862 0 0 1 .611-.263.846.846 0 0 1 .846.846v.78h.78a.848.848 0 0 1 .848.846.848.848 0 0 1-.848.848h-2.165a.788.788 0 0 0-.756.364.793.793 0 0 0 0 .839.79.79 0 0 0 .756.366h1.078a2.474 2.474 0 0 1 2.623 2.314 2.475 2.475 0 0 1-2.316 2.624v.8a.8.8 0 0 1-.25.6.836.836 0 0 1-.6.327.848.848 0 0 1-.845-.85zm.265-8.692v-.009.009z" transform="translate(-2.646 -2.649) translate(2386 7332)"/>
    </g>
</svg>
