<svg xmlns="http://www.w3.org/2000/svg" width="22" height="18" viewBox="0 0 22 18">
    <g>
        <path fill="#4f2da7" d="M21.083 18a.91.91 0 0 1-.917-.9v-1.8a2.708 2.708 0 0 0-2.066-2.611.9.9 0 0 1-.658-1.1.915.915 0 0 1 .888-.675.936.936 0 0 1 .229.029A4.517 4.517 0 0 1 22 15.3v1.8a.909.909 0 0 1-.917.9zm-5.5 0a.909.909 0 0 1-.917-.9v-1.8a2.729 2.729 0 0 0-2.751-2.7H4.584a2.729 2.729 0 0 0-2.751 2.7v1.8a.909.909 0 0 1-.917.9.909.909 0 0 1-.916-.9v-1.8a4.548 4.548 0 0 1 4.584-4.5h7.333a4.548 4.548 0 0 1 4.583 4.5v1.8a.909.909 0 0 1-.917.9zM8.25 9a4.547 4.547 0 0 1-4.584-4.5 4.584 4.584 0 0 1 9.167 0A4.547 4.547 0 0 1 8.25 9zm0-7.2A2.729 2.729 0 0 0 5.5 4.5a2.75 2.75 0 0 0 5.5 0 2.729 2.729 0 0 0-2.75-2.7zm6.416 7.092a.914.914 0 0 1-.888-.677.88.88 0 0 1 .1-.682.909.909 0 0 1 .561-.413 2.688 2.688 0 0 0 0-5.231.909.909 0 0 1-.561-.413.88.88 0 0 1-.1-.682.914.914 0 0 1 .888-.677.936.936 0 0 1 .228.028A4.514 4.514 0 0 1 18.34 4.5a4.513 4.513 0 0 1-3.447 4.359.918.918 0 0 1-.227.033z" transform="translate(0 -2) translate(0 2)"/>
    </g>
</svg>
