<svg xmlns="http://www.w3.org/2000/svg" id="ic_cancel" width="14" height="14" viewBox="0 0 14 14">
    <defs>
        <clipPath id="clip-path">
            <path id="Combined_Shape" d="M12.293 13.707L7 8.414l-5.293 5.293a1 1 0 0 1-1.415-1.414L5.585 7 .292 1.707A1 1 0 0 1 1.707.292L7 5.585 12.293.292a1 1 0 0 1 1.414 1.415L8.414 7l5.293 5.293a1 1 0 1 1-1.414 1.414z" class="cls-1"/>
        </clipPath>
        <style>
            .cls-1{fill:#522fa9}
        </style>
    </defs>
    <g id="x">
        <path id="Combined_Shape-2" d="M12.293 13.707L7 8.414l-5.293 5.293a1 1 0 0 1-1.415-1.414L5.585 7 .292 1.707A1 1 0 0 1 1.707.292L7 5.585 12.293.292a1 1 0 0 1 1.414 1.415L8.414 7l5.293 5.293a1 1 0 1 1-1.414 1.414z" class="cls-1"/>
        <g id="Group_4640" clip-path="url(#clip-path)">
            <g id="COLOR_black" transform="translate(-5 -5)">
                <path id="Rectangle" d="M0 0H24V24H0z" class="cls-1"/>
            </g>
        </g>
    </g>
</svg>
