<svg xmlns="http://www.w3.org/2000/svg" width="18" height="14" viewBox="0 0 18 14">
    <g>
        <path fill="#fff" d="M9 14a8.919 8.919 0 0 1-6.641-3.357A15.912 15.912 0 0 1 .671 8.394a11.784 11.784 0 0 1-.592-1.046.81.81 0 0 1 0-.7 11.779 11.779 0 0 1 .592-1.042 15.912 15.912 0 0 1 1.688-2.249A8.919 8.919 0 0 1 9 0a8.922 8.922 0 0 1 6.642 3.357 15.913 15.913 0 0 1 1.688 2.249 11.775 11.775 0 0 1 .591 1.046.805.805 0 0 1 0 .7 11.775 11.775 0 0 1-.591 1.047 15.913 15.913 0 0 1-1.688 2.248A8.922 8.922 0 0 1 9 14zM9 1.555A7.513 7.513 0 0 0 3.453 4.42 14.361 14.361 0 0 0 1.93 6.45c-.121.2-.23.38-.325.55.092.165.2.351.325.55a14.361 14.361 0 0 0 1.523 2.03A7.513 7.513 0 0 0 9 12.445a7.514 7.514 0 0 0 5.547-2.865 14.281 14.281 0 0 0 1.522-2.03c.121-.194.23-.379.325-.55-.1-.173-.206-.358-.325-.55a14.281 14.281 0 0 0-1.522-2.03A7.514 7.514 0 0 0 9 1.555zm0 8.555A3.06 3.06 0 0 1 6 7a3.06 3.06 0 0 1 3-3.111A3.061 3.061 0 0 1 12 7a3.061 3.061 0 0 1-3 3.111zm0-4.665A1.556 1.556 0 1 0 10.5 7 1.53 1.53 0 0 0 9 5.445z" transform="translate(-.001 -3) translate(.001 3)"/>
    </g>
</svg>
