<svg xmlns="http://www.w3.org/2000/svg" width="34" height="32" viewBox="0 0 34 32">
    <g>
        <path fill="#fff" d="M-2415.466-7113.219a1.68 1.68 0 0 1-.868-1.465v-25.264a5.078 5.078 0 0 1 5.1-5.053h23.8a5.077 5.077 0 0 1 5.1 5.053v16.841a5.075 5.075 0 0 1-5.1 5.053h-17.766a1.721 1.721 0 0 0-.936.237l-7.632 4.58a1.719 1.719 0 0 1-.868.237 1.723 1.723 0 0 1-.83-.219zm2.532-26.729v22.282l5.1-3.031a5.123 5.123 0 0 1 2.636-.724h17.765a1.694 1.694 0 0 0 1.7-1.686v-16.841a1.692 1.692 0 0 0-1.7-1.684h-23.8a1.692 1.692 0 0 0-1.701 1.685zm18.7 8.42a1.692 1.692 0 0 1 1.7-1.684 1.693 1.693 0 0 1 1.7 1.684 1.693 1.693 0 0 1-1.7 1.686 1.692 1.692 0 0 1-1.699-1.685zm-6.8 0a1.693 1.693 0 0 1 1.7-1.684 1.692 1.692 0 0 1 1.7 1.684 1.692 1.692 0 0 1-1.7 1.686 1.694 1.694 0 0 1-1.7-1.685zm-6.8 0a1.693 1.693 0 0 1 1.7-1.684 1.692 1.692 0 0 1 1.7 1.684 1.692 1.692 0 0 1-1.7 1.686 1.693 1.693 0 0 1-1.7-1.685z" transform="translate(-2.667 -4) translate(2419 7149)"/>
    </g>
</svg>
